G04 #@! TF.GenerationSoftware,KiCad,Pcbnew,(5.0.1)-4*
G04 #@! TF.CreationDate,2019-05-13T21:25:37+02:00*
G04 #@! TF.ProjectId,schema_PCP_CO2,736368656D615F5043505F434F322E6B,rev?*
G04 #@! TF.SameCoordinates,PX623a7c0PY6ea0500*
G04 #@! TF.FileFunction,Copper,L2,Bot,Signal*
G04 #@! TF.FilePolarity,Positive*
%FSLAX46Y46*%
G04 Gerber Fmt 4.6, Leading zero omitted, Abs format (unit mm)*
G04 Created by KiCad (PCBNEW (5.0.1)-4) date 13/05/2019 21:25:37*
%MOMM*%
%LPD*%
G01*
G04 APERTURE LIST*
G04 #@! TA.AperFunction,ComponentPad*
%ADD10C,1.524000*%
G04 #@! TD*
G04 #@! TA.AperFunction,ComponentPad*
%ADD11O,2.032000X1.727200*%
G04 #@! TD*
G04 #@! TA.AperFunction,ComponentPad*
%ADD12C,1.700000*%
G04 #@! TD*
G04 #@! TA.AperFunction,ComponentPad*
%ADD13R,1.700000X1.700000*%
G04 #@! TD*
G04 #@! TA.AperFunction,ViaPad*
%ADD14C,2.200000*%
G04 #@! TD*
G04 #@! TA.AperFunction,Conductor*
%ADD15C,0.250000*%
G04 #@! TD*
G04 #@! TA.AperFunction,Conductor*
%ADD16C,0.800000*%
G04 #@! TD*
G04 #@! TA.AperFunction,Conductor*
%ADD17C,0.254000*%
G04 #@! TD*
G04 APERTURE END LIST*
D10*
G04 #@! TO.P,J1,9*
G04 #@! TO.N,+5V*
X34160000Y63930000D03*
G04 #@! TO.P,J1,8*
G04 #@! TO.N,GND*
X34160000Y61390000D03*
G04 #@! TO.P,J1,7*
G04 #@! TO.N,Net-(J1-Pad7)*
X34160000Y58850000D03*
G04 #@! TO.P,J1,6*
G04 #@! TO.N,Net-(J1-Pad6)*
X34160000Y56310000D03*
G04 #@! TO.P,J1,5*
G04 #@! TO.N,Net-(J1-Pad5)*
X4950000Y53770000D03*
G04 #@! TO.P,J1,4*
G04 #@! TO.N,Net-(J1-Pad4)*
X4950000Y56310000D03*
G04 #@! TO.P,J1,3*
G04 #@! TO.N,Net-(J1-Pad3)*
X4950000Y58850000D03*
G04 #@! TO.P,J1,2*
G04 #@! TO.N,Net-(J1-Pad2)*
X4950000Y61390000D03*
G04 #@! TO.P,J1,1*
G04 #@! TO.N,Net-(J1-Pad1)*
X4950000Y63930000D03*
G04 #@! TD*
D11*
G04 #@! TO.P,TH1,3*
G04 #@! TO.N,GND*
X37970000Y10590000D03*
G04 #@! TO.P,TH1,2*
G04 #@! TO.N,Net-(TH1-Pad2)*
X37970000Y8050000D03*
G04 #@! TO.P,TH1,1*
G04 #@! TO.N,+5V*
X37970000Y5510000D03*
G04 #@! TD*
D10*
G04 #@! TO.P,U1,1*
G04 #@! TO.N,Net-(U1-Pad1)*
X5035001Y39704999D03*
G04 #@! TO.P,U1,2*
G04 #@! TO.N,Net-(U1-Pad2)*
X5035001Y37164999D03*
G04 #@! TO.P,U1,3*
G04 #@! TO.N,Net-(U1-Pad3)*
X5035001Y34624999D03*
G04 #@! TO.P,U1,4*
G04 #@! TO.N,Net-(U1-Pad4)*
X5035001Y32084999D03*
G04 #@! TO.P,U1,5*
G04 #@! TO.N,Net-(U1-Pad5)*
X5035001Y29544999D03*
G04 #@! TO.P,U1,6*
G04 #@! TO.N,Net-(U1-Pad6)*
X5035001Y27004999D03*
G04 #@! TO.P,U1,7*
G04 #@! TO.N,Net-(U1-Pad7)*
X5035001Y24464999D03*
G04 #@! TO.P,U1,8*
G04 #@! TO.N,Net-(U1-Pad8)*
X5035001Y21924999D03*
G04 #@! TO.P,U1,9*
G04 #@! TO.N,Net-(U1-Pad9)*
X5035001Y19384999D03*
G04 #@! TO.P,U1,10*
G04 #@! TO.N,GND*
X5035001Y16844999D03*
G04 #@! TO.P,U1,11*
G04 #@! TO.N,Net-(U1-Pad11)*
X5035001Y14304999D03*
G04 #@! TO.P,U1,12*
G04 #@! TO.N,Net-(U1-Pad12)*
X5035001Y11764999D03*
G04 #@! TO.P,U1,13*
G04 #@! TO.N,Net-(U1-Pad13)*
X5035001Y9224999D03*
G04 #@! TO.P,U1,14*
G04 #@! TO.N,GND*
X5035001Y6684999D03*
G04 #@! TO.P,U1,15*
G04 #@! TO.N,+5V*
X5035001Y4144999D03*
G04 #@! TO.P,U1,16*
G04 #@! TO.N,Net-(U1-Pad16)*
X32975001Y4144999D03*
G04 #@! TO.P,U1,17*
G04 #@! TO.N,GND*
X32975001Y6684999D03*
G04 #@! TO.P,U1,18*
G04 #@! TO.N,Net-(U1-Pad18)*
X32975001Y9224999D03*
G04 #@! TO.P,U1,19*
G04 #@! TO.N,Net-(U1-Pad19)*
X32975001Y11764999D03*
G04 #@! TO.P,U1,20*
G04 #@! TO.N,Net-(U1-Pad20)*
X32975001Y14304999D03*
G04 #@! TO.P,U1,21*
G04 #@! TO.N,Net-(J1-Pad3)*
X32975001Y16844999D03*
G04 #@! TO.P,U1,22*
G04 #@! TO.N,Net-(J1-Pad2)*
X32975001Y19384999D03*
G04 #@! TO.P,U1,23*
G04 #@! TO.N,Net-(TH1-Pad2)*
X32975001Y21924999D03*
G04 #@! TO.P,U1,24*
G04 #@! TO.N,GND*
X32975001Y24464999D03*
G04 #@! TO.P,U1,25*
G04 #@! TO.N,+3V3*
X32975001Y27004999D03*
G04 #@! TO.P,U1,26*
G04 #@! TO.N,Net-(U1-Pad26)*
X32975001Y29544999D03*
G04 #@! TO.P,U1,27*
G04 #@! TO.N,Net-(U1-Pad27)*
X32975001Y32084999D03*
G04 #@! TO.P,U1,28*
G04 #@! TO.N,Net-(U1-Pad28)*
X32975001Y34624999D03*
G04 #@! TO.P,U1,29*
G04 #@! TO.N,Net-(U1-Pad29)*
X32975001Y37164999D03*
G04 #@! TO.P,U1,30*
G04 #@! TO.N,Net-(U1-Pad30)*
X32975001Y39704999D03*
G04 #@! TD*
D12*
G04 #@! TO.P,U2,4*
G04 #@! TO.N,Net-(U1-Pad28)*
X37970000Y30910000D03*
G04 #@! TO.P,U2,3*
G04 #@! TO.N,Net-(U1-Pad29)*
X37970000Y33450000D03*
G04 #@! TO.P,U2,2*
G04 #@! TO.N,+3V3*
X37970000Y35990000D03*
D13*
G04 #@! TO.P,U2,1*
G04 #@! TO.N,GND*
X37970000Y38530000D03*
G04 #@! TD*
D14*
G04 #@! TO.N,GND*
X22730000Y47420000D03*
X12570000Y47420000D03*
G04 #@! TD*
D15*
G04 #@! TO.N,+5V*
X36700000Y4240000D02*
X36852400Y4240000D01*
D16*
X5035001Y4144999D02*
X7480000Y1700000D01*
X37817600Y5510000D02*
X37970000Y5510000D01*
X34007600Y1700000D02*
X37817600Y5510000D01*
X7480000Y1700000D02*
X34007600Y1700000D01*
X3957371Y4144999D02*
X5035001Y4144999D01*
X2410000Y5692370D02*
X3957371Y4144999D01*
X2410000Y66470000D02*
X2410000Y5692370D01*
X7490000Y66470000D02*
X2410000Y66470000D01*
X34160000Y63930000D02*
X10030000Y63930000D01*
X10030000Y63930000D02*
X7490000Y66470000D01*
G04 #@! TO.N,GND*
X34160000Y61390000D02*
X36700000Y61390000D01*
X36700000Y61390000D02*
X37970000Y60120000D01*
X37970000Y47420000D02*
X37970000Y38530000D01*
X27810000Y47420000D02*
X37970000Y47420000D01*
X27810000Y25830000D02*
X27810000Y47420000D01*
X32975001Y24464999D02*
X29175001Y24464999D01*
X29175001Y24464999D02*
X27810000Y25830000D01*
X32975001Y24464999D02*
X38065001Y24464999D01*
X38065001Y24464999D02*
X39240000Y23290000D01*
X39240000Y23290000D02*
X39240000Y11860000D01*
X39240000Y11860000D02*
X37970000Y10590000D01*
X37970000Y51230000D02*
X37970000Y47420000D01*
X37970000Y60120000D02*
X37970000Y51230000D01*
X27810000Y47420000D02*
X22730000Y47420000D01*
X5398763Y16844999D02*
X12570000Y24016236D01*
X5035001Y16844999D02*
X5398763Y16844999D01*
X12570000Y24016236D02*
X12570000Y47420000D01*
X12570000Y13142368D02*
X12570000Y24016236D01*
X6112631Y6684999D02*
X12570000Y13142368D01*
X5035001Y6684999D02*
X6112631Y6684999D01*
X32975001Y6684999D02*
X5035001Y6684999D01*
G04 #@! TO.N,Net-(J1-Pad3)*
X15110000Y58850000D02*
X4950000Y58850000D01*
X16380000Y57580000D02*
X15110000Y58850000D01*
X16380000Y24560000D02*
X16380000Y57580000D01*
X32975001Y16844999D02*
X24095001Y16844999D01*
X24095001Y16844999D02*
X16380000Y24560000D01*
G04 #@! TO.N,Net-(J1-Pad2)*
X32975001Y19384999D02*
X29175001Y19384999D01*
X29175001Y19384999D02*
X29080000Y19480000D01*
X29080000Y19480000D02*
X24000000Y19480000D01*
X24000000Y19480000D02*
X18920000Y24560000D01*
X18920000Y24560000D02*
X18920000Y60120000D01*
X17650000Y61390000D02*
X4950000Y61390000D01*
X18920000Y60120000D02*
X17650000Y61390000D01*
G04 #@! TO.N,Net-(TH1-Pad2)*
X34052631Y21924999D02*
X35430000Y20547630D01*
X32975001Y21924999D02*
X34052631Y21924999D01*
X36154000Y8050000D02*
X37970000Y8050000D01*
X35430000Y8774000D02*
X36154000Y8050000D01*
X35430000Y20547630D02*
X35430000Y8774000D01*
G04 #@! TO.N,+3V3*
X40020001Y35142080D02*
X40020001Y27880001D01*
X37970000Y35990000D02*
X39172081Y35990000D01*
X39172081Y35990000D02*
X40020001Y35142080D01*
X39144999Y27004999D02*
X32975001Y27004999D01*
X40020001Y27880001D02*
X39144999Y27004999D01*
G04 #@! TO.N,Net-(U1-Pad28)*
X33330166Y34624999D02*
X35430000Y32525165D01*
X32975001Y34624999D02*
X33330166Y34624999D01*
X35430000Y32525165D02*
X35430000Y30910000D01*
X35430000Y30910000D02*
X37970000Y30910000D01*
G04 #@! TO.N,Net-(U1-Pad29)*
X32975001Y37164999D02*
X34255001Y37164999D01*
X34255001Y37164999D02*
X35430000Y35990000D01*
X36767919Y33450000D02*
X37970000Y33450000D01*
X35430000Y34787919D02*
X36767919Y33450000D01*
X35430000Y35990000D02*
X35430000Y34787919D01*
G04 #@! TD*
D17*
G04 #@! TO.N,GND*
G36*
X41998001Y1002000D02*
X35186260Y1002000D01*
X37903661Y3719400D01*
X38298753Y3719400D01*
X38821057Y3823293D01*
X39413350Y4219050D01*
X39809107Y4811343D01*
X39948079Y5510000D01*
X39809107Y6208657D01*
X39427348Y6780000D01*
X39809107Y7351343D01*
X39948079Y8050000D01*
X39809107Y8748657D01*
X39413350Y9340950D01*
X38821057Y9736707D01*
X38298753Y9840600D01*
X37641247Y9840600D01*
X37118943Y9736707D01*
X36757000Y9494865D01*
X36757000Y20416938D01*
X36782996Y20547630D01*
X36757000Y20678322D01*
X36757000Y20678326D01*
X36680006Y21065400D01*
X36574712Y21222983D01*
X36460746Y21393545D01*
X36460744Y21393547D01*
X36386712Y21504343D01*
X36275917Y21578374D01*
X35083379Y22770911D01*
X35009344Y22881712D01*
X34570401Y23175005D01*
X34183327Y23251999D01*
X34183323Y23251999D01*
X34052631Y23277995D01*
X34017583Y23271023D01*
X33931742Y23356864D01*
X33310964Y23613999D01*
X32639038Y23613999D01*
X32018260Y23356864D01*
X31543136Y22881740D01*
X31286001Y22260962D01*
X31286001Y21589036D01*
X31543136Y20968258D01*
X31799395Y20711999D01*
X29624719Y20711999D01*
X29597770Y20730006D01*
X29210696Y20807000D01*
X29210692Y20807000D01*
X29080000Y20832996D01*
X28949308Y20807000D01*
X24549661Y20807000D01*
X20247000Y25109660D01*
X20247000Y40040962D01*
X31286001Y40040962D01*
X31286001Y39369036D01*
X31543136Y38748258D01*
X31856395Y38434999D01*
X31543136Y38121740D01*
X31286001Y37500962D01*
X31286001Y36829036D01*
X31543136Y36208258D01*
X31856395Y35894999D01*
X31543136Y35581740D01*
X31286001Y34960962D01*
X31286001Y34289036D01*
X31543136Y33668258D01*
X31856395Y33354999D01*
X31543136Y33041740D01*
X31286001Y32420962D01*
X31286001Y31749036D01*
X31543136Y31128258D01*
X31856395Y30814999D01*
X31543136Y30501740D01*
X31286001Y29880962D01*
X31286001Y29209036D01*
X31543136Y28588258D01*
X31856395Y28274999D01*
X31543136Y27961740D01*
X31286001Y27340962D01*
X31286001Y26669036D01*
X31543136Y26048258D01*
X32018260Y25573134D01*
X32639038Y25315999D01*
X33310964Y25315999D01*
X33931742Y25573134D01*
X34036607Y25677999D01*
X39014307Y25677999D01*
X39144999Y25652003D01*
X39275691Y25677999D01*
X39275695Y25677999D01*
X39662769Y25754993D01*
X40101712Y26048286D01*
X40175747Y26159087D01*
X40865915Y26849255D01*
X40976714Y26923288D01*
X41270007Y27362231D01*
X41347001Y27749305D01*
X41347001Y27749309D01*
X41372997Y27880001D01*
X41347001Y28010693D01*
X41347001Y35011388D01*
X41372997Y35142080D01*
X41347001Y35272772D01*
X41347001Y35272776D01*
X41270007Y35659850D01*
X41150971Y35837999D01*
X41050747Y35987995D01*
X41050745Y35987997D01*
X40976713Y36098793D01*
X40865917Y36172824D01*
X40202829Y36835912D01*
X40128794Y36946713D01*
X39689851Y37240006D01*
X39302777Y37317000D01*
X39302773Y37317000D01*
X39172081Y37342996D01*
X39137032Y37336024D01*
X38976589Y37496467D01*
X38323467Y37767000D01*
X37616533Y37767000D01*
X36963411Y37496467D01*
X36463533Y36996589D01*
X36421382Y36894827D01*
X36386712Y36946713D01*
X36275919Y37020743D01*
X35285749Y38010912D01*
X35211714Y38121712D01*
X34772771Y38415005D01*
X34385697Y38491999D01*
X34385693Y38491999D01*
X34255001Y38517995D01*
X34157137Y38498529D01*
X34406866Y38748258D01*
X34664001Y39369036D01*
X34664001Y40040962D01*
X34406866Y40661740D01*
X33931742Y41136864D01*
X33310964Y41393999D01*
X32639038Y41393999D01*
X32018260Y41136864D01*
X31543136Y40661740D01*
X31286001Y40040962D01*
X20247000Y40040962D01*
X20247000Y59185963D01*
X32471000Y59185963D01*
X32471000Y58514037D01*
X32728135Y57893259D01*
X33041394Y57580000D01*
X32728135Y57266741D01*
X32471000Y56645963D01*
X32471000Y55974037D01*
X32728135Y55353259D01*
X33203259Y54878135D01*
X33824037Y54621000D01*
X34495963Y54621000D01*
X35116741Y54878135D01*
X35591865Y55353259D01*
X35849000Y55974037D01*
X35849000Y56645963D01*
X35591865Y57266741D01*
X35278606Y57580000D01*
X35591865Y57893259D01*
X35849000Y58514037D01*
X35849000Y59185963D01*
X35591865Y59806741D01*
X35116741Y60281865D01*
X34495963Y60539000D01*
X33824037Y60539000D01*
X33203259Y60281865D01*
X32728135Y59806741D01*
X32471000Y59185963D01*
X20247000Y59185963D01*
X20247000Y59989309D01*
X20272996Y60120001D01*
X20247000Y60250693D01*
X20247000Y60250696D01*
X20170006Y60637770D01*
X19876713Y61076713D01*
X19765915Y61150746D01*
X18680748Y62235912D01*
X18606713Y62346713D01*
X18223153Y62603000D01*
X33098394Y62603000D01*
X33203259Y62498135D01*
X33824037Y62241000D01*
X34495963Y62241000D01*
X35116741Y62498135D01*
X35591865Y62973259D01*
X35849000Y63594037D01*
X35849000Y64265963D01*
X35591865Y64886741D01*
X35116741Y65361865D01*
X34495963Y65619000D01*
X33824037Y65619000D01*
X33203259Y65361865D01*
X33098394Y65257000D01*
X10579661Y65257000D01*
X8520748Y67315912D01*
X8446713Y67426713D01*
X8007770Y67720006D01*
X7620696Y67797000D01*
X7620692Y67797000D01*
X7490000Y67822996D01*
X7359308Y67797000D01*
X2540695Y67797000D01*
X2410000Y67822997D01*
X2279304Y67797000D01*
X1892230Y67720006D01*
X1453287Y67426713D01*
X1159994Y66987770D01*
X1057003Y66470000D01*
X1083000Y66339304D01*
X1083001Y5823067D01*
X1057004Y5692370D01*
X1159994Y5174601D01*
X1281850Y4992231D01*
X1453288Y4735657D01*
X1564086Y4661624D01*
X2926624Y3299085D01*
X3000658Y3188286D01*
X3439601Y2894993D01*
X3826675Y2817999D01*
X3826678Y2817999D01*
X3957370Y2792003D01*
X3992419Y2798975D01*
X4078260Y2713134D01*
X4699038Y2455999D01*
X4847341Y2455999D01*
X6301339Y1002000D01*
X1002000Y1002000D01*
X1002000Y68998000D01*
X41998000Y68998000D01*
X41998001Y1002000D01*
X41998001Y1002000D01*
G37*
X41998001Y1002000D02*
X35186260Y1002000D01*
X37903661Y3719400D01*
X38298753Y3719400D01*
X38821057Y3823293D01*
X39413350Y4219050D01*
X39809107Y4811343D01*
X39948079Y5510000D01*
X39809107Y6208657D01*
X39427348Y6780000D01*
X39809107Y7351343D01*
X39948079Y8050000D01*
X39809107Y8748657D01*
X39413350Y9340950D01*
X38821057Y9736707D01*
X38298753Y9840600D01*
X37641247Y9840600D01*
X37118943Y9736707D01*
X36757000Y9494865D01*
X36757000Y20416938D01*
X36782996Y20547630D01*
X36757000Y20678322D01*
X36757000Y20678326D01*
X36680006Y21065400D01*
X36574712Y21222983D01*
X36460746Y21393545D01*
X36460744Y21393547D01*
X36386712Y21504343D01*
X36275917Y21578374D01*
X35083379Y22770911D01*
X35009344Y22881712D01*
X34570401Y23175005D01*
X34183327Y23251999D01*
X34183323Y23251999D01*
X34052631Y23277995D01*
X34017583Y23271023D01*
X33931742Y23356864D01*
X33310964Y23613999D01*
X32639038Y23613999D01*
X32018260Y23356864D01*
X31543136Y22881740D01*
X31286001Y22260962D01*
X31286001Y21589036D01*
X31543136Y20968258D01*
X31799395Y20711999D01*
X29624719Y20711999D01*
X29597770Y20730006D01*
X29210696Y20807000D01*
X29210692Y20807000D01*
X29080000Y20832996D01*
X28949308Y20807000D01*
X24549661Y20807000D01*
X20247000Y25109660D01*
X20247000Y40040962D01*
X31286001Y40040962D01*
X31286001Y39369036D01*
X31543136Y38748258D01*
X31856395Y38434999D01*
X31543136Y38121740D01*
X31286001Y37500962D01*
X31286001Y36829036D01*
X31543136Y36208258D01*
X31856395Y35894999D01*
X31543136Y35581740D01*
X31286001Y34960962D01*
X31286001Y34289036D01*
X31543136Y33668258D01*
X31856395Y33354999D01*
X31543136Y33041740D01*
X31286001Y32420962D01*
X31286001Y31749036D01*
X31543136Y31128258D01*
X31856395Y30814999D01*
X31543136Y30501740D01*
X31286001Y29880962D01*
X31286001Y29209036D01*
X31543136Y28588258D01*
X31856395Y28274999D01*
X31543136Y27961740D01*
X31286001Y27340962D01*
X31286001Y26669036D01*
X31543136Y26048258D01*
X32018260Y25573134D01*
X32639038Y25315999D01*
X33310964Y25315999D01*
X33931742Y25573134D01*
X34036607Y25677999D01*
X39014307Y25677999D01*
X39144999Y25652003D01*
X39275691Y25677999D01*
X39275695Y25677999D01*
X39662769Y25754993D01*
X40101712Y26048286D01*
X40175747Y26159087D01*
X40865915Y26849255D01*
X40976714Y26923288D01*
X41270007Y27362231D01*
X41347001Y27749305D01*
X41347001Y27749309D01*
X41372997Y27880001D01*
X41347001Y28010693D01*
X41347001Y35011388D01*
X41372997Y35142080D01*
X41347001Y35272772D01*
X41347001Y35272776D01*
X41270007Y35659850D01*
X41150971Y35837999D01*
X41050747Y35987995D01*
X41050745Y35987997D01*
X40976713Y36098793D01*
X40865917Y36172824D01*
X40202829Y36835912D01*
X40128794Y36946713D01*
X39689851Y37240006D01*
X39302777Y37317000D01*
X39302773Y37317000D01*
X39172081Y37342996D01*
X39137032Y37336024D01*
X38976589Y37496467D01*
X38323467Y37767000D01*
X37616533Y37767000D01*
X36963411Y37496467D01*
X36463533Y36996589D01*
X36421382Y36894827D01*
X36386712Y36946713D01*
X36275919Y37020743D01*
X35285749Y38010912D01*
X35211714Y38121712D01*
X34772771Y38415005D01*
X34385697Y38491999D01*
X34385693Y38491999D01*
X34255001Y38517995D01*
X34157137Y38498529D01*
X34406866Y38748258D01*
X34664001Y39369036D01*
X34664001Y40040962D01*
X34406866Y40661740D01*
X33931742Y41136864D01*
X33310964Y41393999D01*
X32639038Y41393999D01*
X32018260Y41136864D01*
X31543136Y40661740D01*
X31286001Y40040962D01*
X20247000Y40040962D01*
X20247000Y59185963D01*
X32471000Y59185963D01*
X32471000Y58514037D01*
X32728135Y57893259D01*
X33041394Y57580000D01*
X32728135Y57266741D01*
X32471000Y56645963D01*
X32471000Y55974037D01*
X32728135Y55353259D01*
X33203259Y54878135D01*
X33824037Y54621000D01*
X34495963Y54621000D01*
X35116741Y54878135D01*
X35591865Y55353259D01*
X35849000Y55974037D01*
X35849000Y56645963D01*
X35591865Y57266741D01*
X35278606Y57580000D01*
X35591865Y57893259D01*
X35849000Y58514037D01*
X35849000Y59185963D01*
X35591865Y59806741D01*
X35116741Y60281865D01*
X34495963Y60539000D01*
X33824037Y60539000D01*
X33203259Y60281865D01*
X32728135Y59806741D01*
X32471000Y59185963D01*
X20247000Y59185963D01*
X20247000Y59989309D01*
X20272996Y60120001D01*
X20247000Y60250693D01*
X20247000Y60250696D01*
X20170006Y60637770D01*
X19876713Y61076713D01*
X19765915Y61150746D01*
X18680748Y62235912D01*
X18606713Y62346713D01*
X18223153Y62603000D01*
X33098394Y62603000D01*
X33203259Y62498135D01*
X33824037Y62241000D01*
X34495963Y62241000D01*
X35116741Y62498135D01*
X35591865Y62973259D01*
X35849000Y63594037D01*
X35849000Y64265963D01*
X35591865Y64886741D01*
X35116741Y65361865D01*
X34495963Y65619000D01*
X33824037Y65619000D01*
X33203259Y65361865D01*
X33098394Y65257000D01*
X10579661Y65257000D01*
X8520748Y67315912D01*
X8446713Y67426713D01*
X8007770Y67720006D01*
X7620696Y67797000D01*
X7620692Y67797000D01*
X7490000Y67822996D01*
X7359308Y67797000D01*
X2540695Y67797000D01*
X2410000Y67822997D01*
X2279304Y67797000D01*
X1892230Y67720006D01*
X1453287Y67426713D01*
X1159994Y66987770D01*
X1057003Y66470000D01*
X1083000Y66339304D01*
X1083001Y5823067D01*
X1057004Y5692370D01*
X1159994Y5174601D01*
X1281850Y4992231D01*
X1453288Y4735657D01*
X1564086Y4661624D01*
X2926624Y3299085D01*
X3000658Y3188286D01*
X3439601Y2894993D01*
X3826675Y2817999D01*
X3826678Y2817999D01*
X3957370Y2792003D01*
X3992419Y2798975D01*
X4078260Y2713134D01*
X4699038Y2455999D01*
X4847341Y2455999D01*
X6301339Y1002000D01*
X1002000Y1002000D01*
X1002000Y68998000D01*
X41998000Y68998000D01*
X41998001Y1002000D01*
G36*
X15053001Y57030338D02*
X15053000Y24690692D01*
X15027004Y24560000D01*
X15053000Y24429308D01*
X15053000Y24429305D01*
X15129994Y24042231D01*
X15423287Y23603288D01*
X15534086Y23529254D01*
X23064255Y15999084D01*
X23138288Y15888286D01*
X23577231Y15594993D01*
X23964305Y15517999D01*
X23964308Y15517999D01*
X24095000Y15492003D01*
X24225692Y15517999D01*
X31799395Y15517999D01*
X31543136Y15261740D01*
X31286001Y14640962D01*
X31286001Y13969036D01*
X31543136Y13348258D01*
X31856395Y13034999D01*
X31543136Y12721740D01*
X31286001Y12100962D01*
X31286001Y11429036D01*
X31543136Y10808258D01*
X31856395Y10494999D01*
X31543136Y10181740D01*
X31286001Y9560962D01*
X31286001Y8889036D01*
X31543136Y8268258D01*
X32018260Y7793134D01*
X32639038Y7535999D01*
X33310964Y7535999D01*
X33931742Y7793134D01*
X34266049Y8127441D01*
X34399254Y7928086D01*
X34473288Y7817287D01*
X34584086Y7743254D01*
X35123252Y7204088D01*
X35197287Y7093287D01*
X35636230Y6799994D01*
X36023304Y6723000D01*
X36023308Y6723000D01*
X36154000Y6697004D01*
X36284692Y6723000D01*
X36474566Y6723000D01*
X36130893Y6208657D01*
X36004580Y5573641D01*
X34664001Y4233061D01*
X34664001Y4480962D01*
X34406866Y5101740D01*
X33931742Y5576864D01*
X33310964Y5833999D01*
X32639038Y5833999D01*
X32018260Y5576864D01*
X31543136Y5101740D01*
X31286001Y4480962D01*
X31286001Y3809036D01*
X31543136Y3188258D01*
X31704394Y3027000D01*
X8029661Y3027000D01*
X6724001Y4332659D01*
X6724001Y4480962D01*
X6466866Y5101740D01*
X5991742Y5576864D01*
X5370964Y5833999D01*
X4699038Y5833999D01*
X4307296Y5671734D01*
X3737000Y6242030D01*
X3737000Y8134394D01*
X4078260Y7793134D01*
X4699038Y7535999D01*
X5370964Y7535999D01*
X5991742Y7793134D01*
X6466866Y8268258D01*
X6724001Y8889036D01*
X6724001Y9560962D01*
X6466866Y10181740D01*
X6153607Y10494999D01*
X6466866Y10808258D01*
X6724001Y11429036D01*
X6724001Y12100962D01*
X6466866Y12721740D01*
X6153607Y13034999D01*
X6466866Y13348258D01*
X6724001Y13969036D01*
X6724001Y14640962D01*
X6466866Y15261740D01*
X5991742Y15736864D01*
X5370964Y15993999D01*
X4699038Y15993999D01*
X4078260Y15736864D01*
X3737000Y15395604D01*
X3737000Y18294394D01*
X4078260Y17953134D01*
X4699038Y17695999D01*
X5370964Y17695999D01*
X5991742Y17953134D01*
X6466866Y18428258D01*
X6724001Y19049036D01*
X6724001Y19720962D01*
X6466866Y20341740D01*
X6153607Y20654999D01*
X6466866Y20968258D01*
X6724001Y21589036D01*
X6724001Y22260962D01*
X6466866Y22881740D01*
X6153607Y23194999D01*
X6466866Y23508258D01*
X6724001Y24129036D01*
X6724001Y24800962D01*
X6466866Y25421740D01*
X6153607Y25734999D01*
X6466866Y26048258D01*
X6724001Y26669036D01*
X6724001Y27340962D01*
X6466866Y27961740D01*
X6153607Y28274999D01*
X6466866Y28588258D01*
X6724001Y29209036D01*
X6724001Y29880962D01*
X6466866Y30501740D01*
X6153607Y30814999D01*
X6466866Y31128258D01*
X6724001Y31749036D01*
X6724001Y32420962D01*
X6466866Y33041740D01*
X6153607Y33354999D01*
X6466866Y33668258D01*
X6724001Y34289036D01*
X6724001Y34960962D01*
X6466866Y35581740D01*
X6153607Y35894999D01*
X6466866Y36208258D01*
X6724001Y36829036D01*
X6724001Y37500962D01*
X6466866Y38121740D01*
X6153607Y38434999D01*
X6466866Y38748258D01*
X6724001Y39369036D01*
X6724001Y40040962D01*
X6466866Y40661740D01*
X5991742Y41136864D01*
X5370964Y41393999D01*
X4699038Y41393999D01*
X4078260Y41136864D01*
X3737000Y40795604D01*
X3737000Y52594394D01*
X3993259Y52338135D01*
X4614037Y52081000D01*
X5285963Y52081000D01*
X5906741Y52338135D01*
X6381865Y52813259D01*
X6639000Y53434037D01*
X6639000Y54105963D01*
X6381865Y54726741D01*
X6068606Y55040000D01*
X6381865Y55353259D01*
X6639000Y55974037D01*
X6639000Y56645963D01*
X6381865Y57266741D01*
X6125606Y57523000D01*
X14560340Y57523000D01*
X15053001Y57030338D01*
X15053001Y57030338D01*
G37*
X15053001Y57030338D02*
X15053000Y24690692D01*
X15027004Y24560000D01*
X15053000Y24429308D01*
X15053000Y24429305D01*
X15129994Y24042231D01*
X15423287Y23603288D01*
X15534086Y23529254D01*
X23064255Y15999084D01*
X23138288Y15888286D01*
X23577231Y15594993D01*
X23964305Y15517999D01*
X23964308Y15517999D01*
X24095000Y15492003D01*
X24225692Y15517999D01*
X31799395Y15517999D01*
X31543136Y15261740D01*
X31286001Y14640962D01*
X31286001Y13969036D01*
X31543136Y13348258D01*
X31856395Y13034999D01*
X31543136Y12721740D01*
X31286001Y12100962D01*
X31286001Y11429036D01*
X31543136Y10808258D01*
X31856395Y10494999D01*
X31543136Y10181740D01*
X31286001Y9560962D01*
X31286001Y8889036D01*
X31543136Y8268258D01*
X32018260Y7793134D01*
X32639038Y7535999D01*
X33310964Y7535999D01*
X33931742Y7793134D01*
X34266049Y8127441D01*
X34399254Y7928086D01*
X34473288Y7817287D01*
X34584086Y7743254D01*
X35123252Y7204088D01*
X35197287Y7093287D01*
X35636230Y6799994D01*
X36023304Y6723000D01*
X36023308Y6723000D01*
X36154000Y6697004D01*
X36284692Y6723000D01*
X36474566Y6723000D01*
X36130893Y6208657D01*
X36004580Y5573641D01*
X34664001Y4233061D01*
X34664001Y4480962D01*
X34406866Y5101740D01*
X33931742Y5576864D01*
X33310964Y5833999D01*
X32639038Y5833999D01*
X32018260Y5576864D01*
X31543136Y5101740D01*
X31286001Y4480962D01*
X31286001Y3809036D01*
X31543136Y3188258D01*
X31704394Y3027000D01*
X8029661Y3027000D01*
X6724001Y4332659D01*
X6724001Y4480962D01*
X6466866Y5101740D01*
X5991742Y5576864D01*
X5370964Y5833999D01*
X4699038Y5833999D01*
X4307296Y5671734D01*
X3737000Y6242030D01*
X3737000Y8134394D01*
X4078260Y7793134D01*
X4699038Y7535999D01*
X5370964Y7535999D01*
X5991742Y7793134D01*
X6466866Y8268258D01*
X6724001Y8889036D01*
X6724001Y9560962D01*
X6466866Y10181740D01*
X6153607Y10494999D01*
X6466866Y10808258D01*
X6724001Y11429036D01*
X6724001Y12100962D01*
X6466866Y12721740D01*
X6153607Y13034999D01*
X6466866Y13348258D01*
X6724001Y13969036D01*
X6724001Y14640962D01*
X6466866Y15261740D01*
X5991742Y15736864D01*
X5370964Y15993999D01*
X4699038Y15993999D01*
X4078260Y15736864D01*
X3737000Y15395604D01*
X3737000Y18294394D01*
X4078260Y17953134D01*
X4699038Y17695999D01*
X5370964Y17695999D01*
X5991742Y17953134D01*
X6466866Y18428258D01*
X6724001Y19049036D01*
X6724001Y19720962D01*
X6466866Y20341740D01*
X6153607Y20654999D01*
X6466866Y20968258D01*
X6724001Y21589036D01*
X6724001Y22260962D01*
X6466866Y22881740D01*
X6153607Y23194999D01*
X6466866Y23508258D01*
X6724001Y24129036D01*
X6724001Y24800962D01*
X6466866Y25421740D01*
X6153607Y25734999D01*
X6466866Y26048258D01*
X6724001Y26669036D01*
X6724001Y27340962D01*
X6466866Y27961740D01*
X6153607Y28274999D01*
X6466866Y28588258D01*
X6724001Y29209036D01*
X6724001Y29880962D01*
X6466866Y30501740D01*
X6153607Y30814999D01*
X6466866Y31128258D01*
X6724001Y31749036D01*
X6724001Y32420962D01*
X6466866Y33041740D01*
X6153607Y33354999D01*
X6466866Y33668258D01*
X6724001Y34289036D01*
X6724001Y34960962D01*
X6466866Y35581740D01*
X6153607Y35894999D01*
X6466866Y36208258D01*
X6724001Y36829036D01*
X6724001Y37500962D01*
X6466866Y38121740D01*
X6153607Y38434999D01*
X6466866Y38748258D01*
X6724001Y39369036D01*
X6724001Y40040962D01*
X6466866Y40661740D01*
X5991742Y41136864D01*
X5370964Y41393999D01*
X4699038Y41393999D01*
X4078260Y41136864D01*
X3737000Y40795604D01*
X3737000Y52594394D01*
X3993259Y52338135D01*
X4614037Y52081000D01*
X5285963Y52081000D01*
X5906741Y52338135D01*
X6381865Y52813259D01*
X6639000Y53434037D01*
X6639000Y54105963D01*
X6381865Y54726741D01*
X6068606Y55040000D01*
X6381865Y55353259D01*
X6639000Y55974037D01*
X6639000Y56645963D01*
X6381865Y57266741D01*
X6125606Y57523000D01*
X14560340Y57523000D01*
X15053001Y57030338D01*
G04 #@! TD*
M02*
