M48
;DRILL file {KiCad (5.0.1)-4} date 13/05/2019 21:26:05
;FORMAT={-:-/ absolute / metric / decimal}
FMAT,2
METRIC,TZ
T1C0.762
T2C0.800
T3C1.000
T4C1.016
%
G90
G05
M71
T1
X4.95Y63.93
X4.95Y61.39
X4.95Y58.85
X4.95Y56.31
X4.95Y53.77
X34.16Y63.93
X34.16Y61.39
X34.16Y58.85
X34.16Y56.31
X5.035Y39.705
X5.035Y37.165
X5.035Y34.625
X5.035Y32.085
X5.035Y29.545
X5.035Y27.005
X5.035Y24.465
X5.035Y21.925
X5.035Y19.385
X5.035Y16.845
X5.035Y14.305
X5.035Y11.765
X5.035Y9.225
X5.035Y6.685
X5.035Y4.145
X32.975Y39.705
X32.975Y37.165
X32.975Y34.625
X32.975Y32.085
X32.975Y29.545
X32.975Y27.005
X32.975Y24.465
X32.975Y21.925
X32.975Y19.385
X32.975Y16.845
X32.975Y14.305
X32.975Y11.765
X32.975Y9.225
X32.975Y6.685
X32.975Y4.145
T2
X12.57Y47.42
X22.73Y47.42
T3
X37.97Y38.53
X37.97Y35.99
X37.97Y33.45
X37.97Y30.91
T4
X37.97Y10.59
X37.97Y8.05
X37.97Y5.51
T0
M30
